ply
format ascii 1.0
comment VCGLIB generated
element vertex 8
property float x
property float y
property float z
property uchar red
property uchar green
property uchar blue
property uchar alpha
element face 12
property list uchar int vertex_indices
end_header
-7.62939e-006 0 7 33 187 76 255 
213 0 7 33 187 76 255 
-7.62939e-006 297 7 33 187 76 255 
-7.62939e-006 0 0 33 187 76 255 
-7.62939e-006 297 0 33 187 76 255 
213 297 0 33 187 76 255 
213 297 7 33 187 76 255 
213 0 0 33 187 76 255 
3 0 1 2 
3 3 0 2 
3 3 2 4 
3 5 3 4 
3 6 5 4 
3 7 5 6 
3 6 1 7 
3 3 7 1 
3 3 5 7 
3 4 2 6 
3 6 2 1 
3 1 0 3 
